<svg viewBox="0 0 67 67" fill="none" xmlns="http://www.w3.org/2000/svg">
<path d="M27.0546 8.03988C19.966 5.98968 10.0098 1.66148 6.44541 8.83048C2.54601 16.7097 9.44701 24.1199 13.9494 29.9489C17.0448 34.3709 15.946 38.1497 11.8456 42.4645C2.68001 52.0723 6.80721 64.9363 20.301 65.1507C26.1836 65.1507 31.6374 62.3635 36.8232 59.5763C46.766 54.2163 52.9032 58.1693 59.3754 53.5195C63.717 50.4241 60.6484 42.5181 58.8528 37.7611C57.3212 33.783 57.2218 29.3961 58.5714 25.3527C59.9114 20.2339 60.769 11.9527 55.1142 9.39328C52.5414 8.42848 49.58 9.54068 46.9 8.66968C43.5768 7.55748 41.9152 3.63128 38.659 2.33148C32.3208 -0.214519 32.16 9.37988 27.0546 8.03988Z" stroke="#BE0000" stroke-width="0.8" stroke-miterlimit="10"/>
<path d="M39.1147 3.87248C42.2101 5.07848 43.8181 8.76348 46.9805 9.82208C49.4595 10.6529 52.3405 9.56748 54.7257 10.5591C60.0857 12.8103 59.5899 20.8771 58.1427 25.6877C56.9821 29.5639 57.0901 33.7094 58.4509 37.5199C60.1259 42.0759 62.9399 49.5799 58.8127 52.5547C52.6219 57.0303 46.7527 53.4257 37.3727 58.4239C32.4549 61.0235 27.2691 63.6633 21.7215 63.5695C8.99147 63.3819 5.06527 51.1879 13.5341 42.1295C17.3397 38.0425 18.4519 34.3977 15.4771 30.2571C11.4571 24.6157 4.86427 17.6745 8.57607 10.2375C11.9261 3.39008 21.3061 7.36988 28.0195 9.19228C32.8435 10.5055 33.0713 1.48728 39.1147 3.87248Z" stroke="#BE0000" stroke-width="0.784" stroke-miterlimit="10"/>
<path d="M39.5031 5.35987C42.4377 6.49887 44.019 9.91587 47.0072 10.9209C49.3522 11.7115 52.0455 10.7199 54.3369 11.6713C59.4691 13.8822 58.9599 21.4398 57.7137 26.0226C56.6755 29.6985 56.7925 33.6046 58.0487 37.2116C59.6031 41.58 62.1759 48.6686 58.2631 51.5362C52.4073 55.8242 46.8195 52.5814 37.8549 57.2044C33.2051 59.6298 28.3141 62.0552 23.1149 61.9346C11.122 61.6398 7.36999 50.2498 15.1821 41.6604C18.6929 37.8012 19.7113 34.344 16.9375 30.4446C13.1454 25.0846 7.12879 18.5186 10.6396 11.5105C13.8555 5.11867 22.6995 8.73667 28.9975 10.3849C33.4999 11.5909 33.8215 3.21587 39.5031 5.35987Z" stroke="#BE0000" stroke-width="0.752" stroke-miterlimit="10"/>
<path d="M39.8917 6.95457C42.6789 8.03997 44.2199 11.1756 47.0339 12.127C49.2449 12.864 51.7909 11.9796 53.9483 12.8908C58.7723 14.9544 58.4507 22.0296 57.2849 26.3712C56.3619 29.848 56.4784 33.5191 57.6199 36.9304C59.0805 41.1112 61.3853 47.7978 57.7003 50.5448C52.1795 54.6586 46.8463 51.7508 38.3641 56.0254C33.9689 58.2498 29.3727 60.4742 24.4549 60.3268C13.2659 60.0186 9.71492 49.3388 16.8437 41.2452C20.0597 37.6272 20.9709 34.371 18.4249 30.686C14.9275 25.6074 9.37992 19.4166 12.7433 12.8372C15.7717 6.84737 23.9993 10.1572 29.9757 11.591C34.2369 12.663 34.5585 4.94457 39.8917 6.95457Z" stroke="#BE0000" stroke-width="0.736" stroke-miterlimit="10"/>
<path d="M40.2804 8.49557C42.9604 9.46037 44.3942 12.3816 47.0608 13.266C49.1512 13.9762 51.523 13.199 53.5464 14.0566C58.089 16.013 57.8746 22.6058 56.8562 26.7062C56.0539 29.9953 56.1839 33.4429 57.2314 36.6624C58.5714 40.6824 60.635 46.9134 57.1644 49.5532C51.9652 53.4794 46.8866 50.8932 38.9002 54.9132C34.773 56.95 30.4448 58.9332 25.8486 58.7858C15.4368 58.357 12.06 48.441 18.5188 40.8432C21.44 37.453 22.2708 34.3978 19.9392 30.9272C16.7098 26.13 11.725 20.3144 14.8472 14.1772C17.7014 8.57597 25.3528 11.4972 30.9272 12.8372C34.9338 13.735 35.309 6.69997 40.2804 8.49557Z" stroke="#BE0000" stroke-width="0.72" stroke-miterlimit="10"/>
<path d="M40.6824 10.0366C43.1614 10.921 44.5818 13.5742 47.0876 14.4184C49.044 15.0884 51.2684 14.4184 53.1578 15.2358C57.4056 17.085 57.3118 23.182 56.4274 27.0412C55.7343 30.1488 55.8729 33.3842 56.8294 36.4212C58.0488 40.2134 59.8578 46.0692 56.6016 48.6018C51.7508 52.26 46.9 50.0758 39.4228 53.6C35.5502 55.4492 31.5168 57.2582 27.2422 57.0706C17.5942 56.6284 14.338 47.4628 20.1938 40.3876C22.8738 37.2252 23.5438 34.371 21.44 31.1282C18.492 26.599 14.0164 21.1586 16.951 15.4636C19.631 10.2376 26.6928 12.7836 31.9188 13.936C35.6306 14.8204 36.0594 8.37496 40.6824 10.0366Z" stroke="#BE0000" stroke-width="0.688" stroke-miterlimit="10"/>
<path d="M41.0711 11.5775C43.3893 12.3815 44.7829 14.7802 47.1145 15.5976C48.9503 16.214 51.0139 15.5976 52.7693 16.4284C56.7089 18.1838 56.7893 23.7984 55.9987 27.403C55.423 30.3197 55.5703 33.3331 56.4275 36.18C57.5263 39.7712 59.1075 45.225 56.0523 47.637C51.5365 51.2014 46.9403 49.312 39.9723 52.5414C36.3677 54.203 32.6157 55.7842 28.6627 55.5832C19.7919 55.074 16.6965 46.6722 21.9627 40.1062C24.2809 37.1582 24.9241 34.5184 23.0213 31.49C20.3413 27.2556 16.4151 22.177 19.1353 16.9108C21.6411 12.0867 28.1401 14.2308 32.9909 15.2626C36.3275 15.8924 36.8099 10.1035 41.0711 11.5775Z" stroke="#BE0000" stroke-width="0.672" stroke-miterlimit="10"/>
<path d="M41.4596 13.1185C43.6304 13.842 44.9704 15.986 47.1412 16.723C48.843 17.2992 50.7458 16.8168 52.3806 17.5672C56.0254 19.2288 56.1728 24.3476 55.5698 27.711C55.1175 30.4182 55.2732 33.1919 56.0254 35.8314C57.0036 39.2484 58.3168 44.2734 55.5028 46.5514C51.322 49.9282 46.9804 48.3872 40.4546 51.2682C37.1046 52.7422 33.6474 54.1224 30.016 53.8812C21.976 53.3318 18.9877 45.667 23.5304 39.6102C25.5672 36.9302 26.1032 34.4378 24.4282 31.6372C22.0564 27.6842 18.6125 22.9808 21.1452 18.1568C23.4768 13.7214 29.3862 15.4768 33.8752 16.3612C37.0242 16.9776 37.52 11.8187 41.4596 13.1185Z" stroke="#BE0000" stroke-width="0.64" stroke-miterlimit="10"/>
<path d="M41.8616 14.6597C43.8716 15.3029 45.158 17.1923 47.2216 17.8757C48.8028 18.4117 50.5448 18.0231 52.0456 18.7333C55.3956 20.2877 55.6502 24.9241 55.1946 28.1133C54.8536 30.6218 55.0176 33.1732 55.677 35.6173C56.5346 38.8333 57.6066 43.4564 55.007 45.6406C51.1612 48.8432 47.0608 47.6371 41.0308 50.1563C37.9354 51.4963 34.7596 52.6219 31.4498 52.3539C24.12 51.7509 21.3596 44.8366 25.259 39.2756C26.9876 36.7965 27.4432 34.5453 25.9826 31.9725C23.9056 28.2875 20.9576 23.9325 23.3026 19.5775C25.4466 15.5575 30.7932 16.9913 34.8936 17.6479C37.721 18.0499 38.2972 13.5341 41.8616 14.6597Z" stroke="#BE0000" stroke-width="0.624" stroke-miterlimit="10"/>
<path d="M42.2503 16.2008C44.1129 16.7636 45.3457 18.3984 47.1949 19.0148C48.6421 19.5106 50.2233 19.2426 51.5901 19.8992C54.6453 21.3598 55.0205 25.5004 54.7123 28.3948C54.4843 30.7021 54.652 33.0315 55.2081 35.2824C55.9585 38.3108 56.7893 42.5318 54.4041 44.6624C50.9201 47.6238 47.0341 46.7662 41.5401 48.9236C38.8209 50.1899 35.8412 50.796 32.8435 50.6924C26.2775 50.0224 23.6913 43.8718 26.9207 38.82C27.6658 37.8837 28.117 36.7477 28.2171 35.5552C28.3173 34.3629 28.0619 33.1675 27.4835 32.12C25.6879 28.7164 23.2625 24.7768 25.3931 20.8104C27.3763 17.1656 32.0931 18.2644 35.8719 18.7468C38.4045 19.1354 39.0477 15.2494 42.2503 16.2008Z" stroke="#BE0000" stroke-width="0.608" stroke-miterlimit="10"/>
<path d="M42.6388 17.7415C44.354 18.2105 45.5466 19.5907 47.2216 20.1669C48.5616 20.6225 49.9016 20.4483 51.2416 21.0647C54.002 22.4047 54.4844 26.0763 54.3236 28.7295C54.2137 30.8384 54.3896 32.9524 54.8462 35.0141C55.476 37.8415 56.0522 41.6471 53.8814 43.6035C50.719 46.4443 47.1814 45.9351 42.0492 47.7441C39.5757 48.7934 36.8918 49.2523 34.2102 49.0841C28.4214 48.3605 25.996 42.9737 28.5822 38.3641C29.1745 37.4857 29.5225 36.4656 29.5908 35.4084C29.6592 34.3512 29.4452 33.2949 28.9708 32.3475C27.4566 29.2253 25.5404 25.6475 27.4834 22.1367C29.2924 18.8805 33.4732 19.6175 36.8634 19.9391C39.1012 20.2071 39.798 16.9643 42.6388 17.7415Z" stroke="#BE0000" stroke-width="0.576" stroke-miterlimit="10"/>
<path d="M43.0274 19.2826C44.5952 19.6712 45.7074 20.7968 47.2484 21.3194C48.4572 21.5361 49.6485 21.8405 50.8128 22.2306C53.265 23.4902 53.868 26.6526 53.8546 29.0646C53.8562 30.9673 54.0402 32.8654 54.404 34.7328C54.9132 37.4128 55.2482 40.7762 53.2918 42.5986C50.4644 45.2786 47.101 45.1044 42.5718 46.6186C40.3511 47.4586 37.9667 47.775 35.6038 47.5432C34.5343 47.4577 33.5021 47.1115 32.5975 46.5347C31.6927 45.958 30.9433 45.1683 30.4144 44.2349C29.8855 43.3014 29.5934 42.2525 29.5636 41.1801C29.534 40.1075 29.7674 39.0441 30.2438 38.0828C30.6857 37.2645 30.9336 36.3555 30.9685 35.4262C31.0033 34.497 30.8241 33.572 30.4448 32.7228C29.2254 29.8686 27.7648 26.6794 29.5738 23.5974C31.1952 20.7298 34.7998 21.105 37.788 21.2524C39.798 21.2926 40.5484 18.6662 43.0274 19.2826Z" stroke="#BE0000" stroke-width="0.56" stroke-miterlimit="10"/>
<path d="M43.4294 20.8237C44.7457 21.2892 46.0303 21.8398 47.2752 22.4719C48.3496 22.6884 49.4033 22.9978 50.4242 23.3965C52.5816 24.5623 53.2918 27.2289 53.4258 29.3997C53.5196 31.0345 53.7474 32.8167 54.002 34.4649C54.3906 36.9171 54.471 39.8919 52.7424 41.6071C50.25 44.0995 47.1412 44.2871 43.0408 45.3725C41.0777 46.0012 38.9963 46.1708 36.9572 45.8683C36.0369 45.7471 35.155 45.4223 34.376 44.9174C33.597 44.4125 32.9403 43.7402 32.4539 42.9495C31.9674 42.1589 31.6634 41.2696 31.5638 40.3467C31.4643 39.4237 31.5719 38.4901 31.8786 37.6139C32.4616 36.0956 32.4616 34.4154 31.8786 32.8971C30.954 30.3243 30.0562 27.5371 31.6106 24.8571C33.165 22.1771 36.0728 22.3379 38.6992 22.3915C40.4948 22.4183 41.2988 20.3681 43.4294 20.8237Z" stroke="#BE0000" stroke-width="0.544" stroke-miterlimit="10"/>
<path d="M43.818 22.3644C45.0133 22.6839 46.1789 23.1053 47.302 23.624C48.2244 23.847 49.122 24.1612 49.982 24.562C50.8292 25.153 51.5343 25.9247 52.0464 26.8217C52.5586 27.7185 52.8651 28.718 52.9434 29.7478C53.1444 31.1548 53.3722 32.7092 53.5464 34.1832C53.801 36.4478 53.6402 39.0072 52.2064 40.6152C50.0222 42.8798 47.168 43.456 43.5634 44.2198C41.8481 44.6301 40.0628 44.6529 38.3374 44.2868C36.7596 43.9813 35.3663 43.0651 34.4604 41.7377C33.5544 40.4103 33.2094 38.7789 33.5 37.1982C33.7757 35.8667 33.7299 34.4885 33.366 33.1782C32.7362 30.8734 32.3342 28.448 33.6876 26.237C35.041 24.026 37.52 23.7982 39.7176 23.5838C41.1782 23.4498 42.0626 22.0696 43.818 22.3644Z" stroke="#BE0000" stroke-width="0.512" stroke-miterlimit="10"/>
<path d="M44.22 23.9058C45.2907 24.0683 46.3387 24.3562 47.3422 24.7634C48.1187 25.0086 48.8685 25.3318 49.58 25.7282C51.0728 26.7574 52.1212 28.3132 52.5146 30.0832C52.8371 31.335 53.0479 32.6131 53.1444 33.9022C53.3843 35.9407 52.8221 37.9925 51.5766 39.624C49.593 41.6828 46.8892 42.8931 44.0324 43.0008C42.5729 43.2113 41.0848 43.0922 39.6774 42.6524C38.4131 42.2623 37.3011 41.4895 36.4946 40.4407C35.6882 39.3919 35.2271 38.1186 35.175 36.7966C35.1474 35.6565 35.0444 34.5195 34.8668 33.393C34.4095 31.3948 34.7406 29.2973 35.7914 27.5372C36.3728 26.7758 37.1023 26.14 37.9359 25.6679C38.7696 25.1958 39.6901 24.8973 40.6422 24.7902C41.875 24.549 42.88 23.7718 44.22 23.9058Z" stroke="#BE0000" stroke-width="0.496" stroke-miterlimit="10"/>
<path d="M44.6085 41.8215C49.1304 41.8215 52.7959 38.1559 52.7959 33.6341C52.7959 29.1122 49.1304 25.4467 44.6085 25.4467C40.0867 25.4467 36.4211 29.1122 36.4211 33.6341C36.4211 38.1559 40.0867 41.8215 44.6085 41.8215Z" stroke="#BE0000" stroke-width="0.464" stroke-miterlimit="10"/>
</svg>
